<svg width="23" height="34" viewBox="0 0 23 34" fill="none" xmlns="http://www.w3.org/2000/svg">
<g filter="url(#filter0_d_965_7064)">
<path fill-rule="evenodd" clip-rule="evenodd" d="M12.4696 4.73257L12.4921 9.46514H12.0718H11.6514V8.65195V7.8388L11.2002 7.85526L10.7491 7.87176L10.7364 6.68268L10.7237 5.49359L10.3148 5.47994L9.90584 5.46633L9.87492 4.79027C9.85789 4.41846 9.8439 3.89483 9.8438 3.62672L9.84361 3.13919L9.54627 3.13867C9.38276 3.13838 9.16867 3.12488 9.07053 3.10866L8.89212 3.07917V2.25304V1.42691H7.0605H5.22888V3.47214V5.51737H5.70463H6.18037V6.15201C6.18037 6.50108 6.19441 7.04806 6.21163 7.3675L6.24284 7.94839L6.69309 7.9393L7.14328 7.93022L7.14947 8.66203L7.15565 9.3938L7.56979 9.38195L7.98393 9.37011L8.01266 9.52464C8.02846 9.60964 8.03478 9.81397 8.02669 9.97869L8.01199 10.2782L7.56489 10.2878L7.11774 10.2975L7.12773 9.88132L7.13776 9.46514H5.35077H3.56378V9.89602V10.3269L3.09992 10.3175L2.63607 10.3081L2.62342 11.6447L2.61081 12.9813L3.03912 12.9949L3.46748 13.0086L3.47995 13.9212L3.49241 14.8337L3.07143 14.8487C2.55691 14.8669 2.60011 14.9489 2.57389 13.9035L2.55206 13.0324H1.67825H0.804452V13.5775V14.1225L0.411962 14.1364L0.0194724 14.1501L0.00358184 14.4831C-0.00517188 14.6662 0.00267813 15.4227 0.0210419 16.1642L0.0543447 17.5123L0.424142 17.4795L0.793986 17.4468L0.811636 17.8361C0.833996 18.3286 0.868678 18.3596 1.39633 18.3594L1.77973 18.3593L1.76422 18.7399L1.74871 19.1205H2.65624H3.56378V19.5537C3.56378 19.9292 3.57381 19.983 3.63904 19.958C3.68043 19.9421 4.2802 19.9291 4.97193 19.9291H6.22957L6.21686 18.7281L6.20416 17.5272L5.7641 17.5135L5.32403 17.4998V17.0754V16.6509L4.90776 16.6372L4.49148 16.6235L4.47778 16.209L4.46403 15.7946L4.02582 15.781L3.58756 15.7673L3.57396 15.3036L3.56035 14.8398H4.01402H4.46769V15.2917V15.7435H4.94344H5.41918V16.1478V16.5521H5.86143H6.30369L6.2839 17.0051L6.26406 17.458L7.12915 17.445L7.9942 17.432L7.98982 16.1394L7.98545 14.8469L8.4031 14.8305C8.63279 14.8214 8.83399 14.8194 8.85016 14.8258C8.86634 14.8324 8.88299 15.4259 8.88713 16.145L8.89469 17.4522L8.45334 17.4659L8.01199 17.4796L8.02926 17.9196L8.04653 18.3595L7.60109 18.3595L7.15565 18.3594V19.1799V20.0005L6.71559 20.0142L6.27552 20.0278V20.4874C6.27552 20.8449 6.26282 20.9343 6.21843 20.8899C6.17681 20.8483 5.80929 20.8328 4.86256 20.8328H3.56378V20.4285V20.0242L3.05235 20.0163C2.27446 20.0041 1.90428 20.0119 1.82531 20.0422C1.76465 20.0655 1.75566 20.1925 1.7667 20.8675L1.77973 21.6652L2.2079 21.689L2.63607 21.7127L2.64877 22.9375L2.66148 24.1623H3.11263H3.56378V24.6141V25.066H4.43777H5.31176L5.34497 25.4465L5.37812 25.827H8.96976H12.5614L12.551 25.4346C12.5421 25.0957 12.5514 25.0427 12.6193 25.0461C12.6626 25.0483 12.8908 25.0537 13.1263 25.058L13.5544 25.066V25.4637V25.8613L13.3047 25.8913C13.1673 25.9078 12.9639 25.9215 12.8527 25.9217L12.6505 25.9221V26.3264V26.7307H9.01106H5.37161V26.332V25.9333L4.89586 25.9258L4.42012 25.9183V27.7514V29.5845H4.89586H5.37161L5.37227 29.9056C5.37261 30.0821 5.38583 30.2748 5.40158 30.3336L5.43027 30.4407H6.75488H8.0795L8.09335 30.8331L8.10714 31.2255L10.8308 31.2377L13.5544 31.25V30.8453V30.4407H14.8865H16.2186V30.2333C16.2186 30.1192 16.2322 29.9265 16.2489 29.8052L16.2791 29.5845H16.7479H17.2167L17.2291 27.3371L17.2415 25.0898L17.6577 25.076L18.074 25.0623V24.2555V23.4488H18.4954H18.9168L18.9474 23.1564C18.9642 22.9957 18.9779 22.7709 18.9779 22.657V22.45L19.4418 22.4501L19.9056 22.4502L19.9065 22.1528C19.907 21.9892 19.9123 21.6147 19.9184 21.3204L19.9294 20.7853H20.3814H20.8333V17.3607V13.9361H20.3338H19.8343V12.1049V10.2737H19.3823H18.9303V9.87091V9.46809L17.618 9.45473C16.8963 9.44735 16.2968 9.4503 16.2859 9.46119C16.2538 9.49344 16.2634 12.4691 16.2967 12.7876L16.3273 13.08L16.7368 13.0801L17.1463 13.0803L17.1461 14.4238L17.1459 15.7673L16.706 15.781L16.2662 15.7947L16.2645 15.6383C16.2636 15.5523 16.2642 15.011 16.2659 14.4355C16.2699 13.0612 16.2741 13.0801 15.9629 13.0794C15.8288 13.0792 15.6388 13.0657 15.5407 13.0494L15.3623 13.0199L15.3627 11.4685C15.3629 10.6152 15.3766 9.8046 15.3931 9.66729L15.4231 9.41758H15.8208H16.2186V8.96572V8.51387H16.6946H17.1707L17.1585 4.9585L17.1463 1.40312L16.6825 1.38952L16.2186 1.37592L16.2183 1.00901C16.2181 0.807201 16.2043 0.497657 16.1876 0.321054L16.1573 0H14.3022H12.4471L12.4696 4.73257ZM6.23185 12.1763C6.25588 12.1763 6.27552 12.3582 6.27552 12.5806V12.9848H6.73034H7.1852L7.15199 13.4367L7.11883 13.8885H7.55119H7.98359L7.95814 14.3047C7.92308 14.8784 7.95681 14.8398 7.49015 14.8398H7.08429V14.3823V13.9247L6.63947 13.9442L6.19469 13.9637L6.21772 13.5236L6.24075 13.0836L5.77047 13.0699L5.30025 13.0562L5.30353 12.6281L5.30676 12.2L5.68412 12.1735C5.89164 12.1588 6.08994 12.1535 6.12481 12.1616C6.15963 12.1697 6.20783 12.1763 6.23185 12.1763ZM18.0264 17.4815V19.1718L17.6102 19.1581L17.1939 19.1443L17.1814 17.4677L17.1689 15.7911H17.5976H18.0264V17.4815Z" fill="white"/>
</g>
<defs>
<filter id="filter0_d_965_7064" x="0" y="0" width="22.833" height="33.25" filterUnits="userSpaceOnUse" color-interpolation-filters="sRGB">
<feFlood flood-opacity="0" result="BackgroundImageFix"/>
<feColorMatrix in="SourceAlpha" type="matrix" values="0 0 0 0 0 0 0 0 0 0 0 0 0 0 0 0 0 0 127 0" result="hardAlpha"/>
<feOffset dx="2" dy="2"/>
<feComposite in2="hardAlpha" operator="out"/>
<feColorMatrix type="matrix" values="0 0 0 0 0 0 0 0 0 0 0 0 0 0 0 0 0 0 0.25 0"/>
<feBlend mode="normal" in2="BackgroundImageFix" result="effect1_dropShadow_965_7064"/>
<feBlend mode="normal" in="SourceGraphic" in2="effect1_dropShadow_965_7064" result="shape"/>
</filter>
</defs>
</svg>

