<svg width="375" height="65" viewBox="0 0 375 65" fill="none" xmlns="http://www.w3.org/2000/svg">
<path d="M0 0H375V64H0V0Z" fill="url(#paint0_linear_801_8616)"/>
<path d="M375 64V63.5H0V64V64.5H375V64Z" fill="black" fill-opacity="0.16"/>
<g filter="url(#filter0_d_801_8616)">
<path fill-rule="evenodd" clip-rule="evenodd" d="M30.3026 21.7326L30.3251 26.4651H29.9048H29.4845V25.6519V24.8388L29.0333 24.8553L28.5821 24.8718L28.5694 23.6827L28.5568 22.4936L28.1478 22.4799L27.7388 22.4663L27.7079 21.7903C27.6909 21.4185 27.6769 20.8948 27.6768 20.6267L27.6766 20.1392L27.3793 20.1387C27.2158 20.1384 27.0017 20.1249 26.9035 20.1087L26.7251 20.0792V19.253V18.4269H24.8935H23.0619V20.4721V22.5174H23.5376H24.0134V23.152C24.0134 23.5011 24.0274 24.0481 24.0446 24.3675L24.0758 24.9484L24.5261 24.9393L24.9763 24.9302L24.9825 25.662L24.9887 26.3938L25.4028 26.382L25.8169 26.3701L25.8457 26.5246C25.8615 26.6096 25.8678 26.814 25.8597 26.9787L25.845 27.2782L25.3979 27.2878L24.9507 27.2975L24.9607 26.8813L24.9708 26.4651H23.1838H21.3968V26.896V27.3269L20.9329 27.3175L20.4691 27.3081L20.4564 28.6447L20.4438 29.9813L20.8721 29.9949L21.3005 30.0086L21.313 30.9212L21.3254 31.8337L20.9044 31.8487C20.3899 31.8669 20.4331 31.9489 20.4069 30.9035L20.3851 30.0324H19.5113H18.6375V30.5775V31.1225L18.245 31.1364L17.8525 31.1501L17.8366 31.4831C17.8278 31.6662 17.8357 32.4227 17.854 33.1642L17.8874 34.5123L18.2571 34.4795L18.627 34.4468L18.6446 34.8361C18.667 35.3286 18.7017 35.3596 19.2293 35.3594L19.6127 35.3593L19.5972 35.7399L19.5817 36.1205H20.4893H21.3968V36.5537C21.3968 36.9292 21.4068 36.983 21.472 36.958C21.5134 36.9421 22.1132 36.9291 22.8049 36.9291H24.0626L24.0499 35.7281L24.0372 34.5272L23.5971 34.5135L23.157 34.4998V34.0754V33.6509L22.7408 33.6372L22.3245 33.6235L22.3108 33.209L22.297 32.7946L21.8588 32.781L21.4206 32.7673L21.407 32.3036L21.3934 31.8398H21.847H22.3007V32.2917V32.7435H22.7764H23.2522V33.1478V33.5521H23.6944H24.1367L24.1169 34.0051L24.0971 34.458L24.9622 34.445L25.8272 34.432L25.8228 33.1394L25.8185 31.8469L26.2361 31.8305C26.4658 31.8214 26.667 31.8194 26.6832 31.8258C26.6993 31.8324 26.716 32.4259 26.7201 33.145L26.7277 34.4522L26.2864 34.4659L25.845 34.4796L25.8623 34.9196L25.8795 35.3595L25.4341 35.3595L24.9887 35.3594V36.1799V37.0005L24.5486 37.0142L24.1085 37.0278V37.4874C24.1085 37.8449 24.0958 37.9343 24.0514 37.8899C24.0098 37.8483 23.6423 37.8328 22.6956 37.8328H21.3968V37.4285V37.0242L20.8854 37.0163C20.1075 37.0041 19.7373 37.0119 19.6583 37.0422C19.5977 37.0655 19.5887 37.1925 19.5997 37.8675L19.6127 38.6652L20.0409 38.689L20.4691 38.7127L20.4818 39.9375L20.4945 41.1623H20.9456H21.3968V41.6141V42.066H22.2708H23.1448L23.178 42.4465L23.2111 42.827H26.8028H30.3944L30.384 42.4346C30.3751 42.0957 30.3844 42.0427 30.4524 42.0461C30.4956 42.0483 30.7238 42.0537 30.9593 42.058L31.3874 42.066V42.4637V42.8613L31.1377 42.8913C31.0003 42.9078 30.7969 42.9215 30.6857 42.9217L30.4835 42.9221V43.3264V43.7307H26.8441H23.2046V43.332V42.9333L22.7289 42.9258L22.2531 42.9183V44.7514V46.5845H22.7289H23.2046L23.2053 46.9056C23.2056 47.0821 23.2188 47.2748 23.2346 47.3336L23.2633 47.4407H24.5879H25.9125L25.9264 47.8331L25.9402 48.2255L28.6638 48.2377L31.3874 48.25V47.8453V47.4407H32.7195H34.0516V47.2333C34.0516 47.1192 34.0652 46.9265 34.0819 46.8052L34.1121 46.5845H34.5809H35.0497L35.0621 44.3371L35.0745 42.0898L35.4907 42.076L35.907 42.0623V41.2555V40.4488H36.3284H36.7498L36.7804 40.1564C36.7972 39.9957 36.8109 39.7709 36.8109 39.657V39.45L37.2748 39.4501L37.7386 39.4502L37.7395 39.1528C37.74 38.9892 37.7453 38.6147 37.7514 38.3204L37.7624 37.7853H38.2144H38.6663V34.3607V30.9361H38.1668H37.6673V29.1049V27.2737H37.2153H36.7634V26.8709V26.4681L35.451 26.4547C34.7293 26.4474 34.1298 26.4503 34.1189 26.4612C34.0868 26.4934 34.0964 29.4691 34.1297 29.7876L34.1603 30.08L34.5698 30.0801L34.9793 30.0803L34.9791 31.4238L34.9789 32.7673L34.5391 32.781L34.0992 32.7947L34.0975 32.6383C34.0966 32.5523 34.0972 32.011 34.0989 31.4355C34.1029 30.0612 34.1071 30.0801 33.7959 30.0794C33.6618 30.0792 33.4718 30.0657 33.3737 30.0494L33.1953 30.0199L33.1957 28.4685C33.1959 27.6152 33.2096 26.8046 33.2261 26.6673L33.2561 26.4176H33.6538H34.0516V25.9657V25.5139H34.5276H35.0037L34.9915 21.9585L34.9793 18.4031L34.5155 18.3895L34.0516 18.3759L34.0513 18.009C34.0511 17.8072 34.0373 17.4977 34.0206 17.3211L33.9903 17H32.1352H30.2801L30.3026 21.7326ZM24.0649 29.1763C24.0889 29.1763 24.1085 29.3582 24.1085 29.5806V29.9848H24.5633H25.0182L24.985 30.4367L24.9518 30.8885H25.3842H25.8166L25.7911 31.3047C25.7561 31.8784 25.7898 31.8398 25.3232 31.8398H24.9173V31.3823V30.9247L24.4725 30.9442L24.0277 30.9637L24.0507 30.5236L24.0738 30.0836L23.6035 30.0699L23.1333 30.0562L23.1365 29.6281L23.1398 29.2L23.5171 29.1735C23.7247 29.1588 23.9229 29.1535 23.9578 29.1616C23.9926 29.1697 24.0408 29.1763 24.0649 29.1763ZM35.8594 34.4815V36.1718L35.4432 36.1581L35.0269 36.1443L35.0144 34.4677L35.0019 32.7911H35.4307H35.8594V34.4815Z" fill="white"/>
</g>
<g filter="url(#filter1_di_801_8616)">
<path d="M134 20C134 15.5817 137.582 12 142 12H166C170.418 12 174 15.5817 174 20V44C174 48.4183 170.418 52 166 52H142C137.582 52 134 48.4183 134 44V20Z" fill="#8581FF" fill-opacity="0.16" shape-rendering="crispEdges"/>
<g filter="url(#filter2_d_801_8616)">
<path d="M155.253 25.9669C155.572 26.1113 155.778 26.428 155.778 26.778V37.4447C155.778 37.7947 155.572 38.1113 155.253 38.2558C154.933 38.4002 154.558 38.3419 154.297 38.1086L150.55 34.778H148.666C147.686 34.778 146.889 33.9808 146.889 33.0002V31.2225C146.889 30.2419 147.686 29.4447 148.666 29.4447H150.55L154.297 26.1141C154.558 25.8808 154.933 25.8252 155.253 25.9669ZM160.03 27.9725C161.23 28.9502 162 30.4419 162 32.1113C162 33.7808 161.23 35.2725 160.03 36.2502C159.744 36.4836 159.325 36.4391 159.091 36.153C158.858 35.8669 158.903 35.4475 159.189 35.2141C160.091 34.4808 160.666 33.3641 160.666 32.1113C160.666 30.8586 160.091 29.7419 159.189 29.0058C158.903 28.7725 158.861 28.353 159.091 28.0669C159.322 27.7808 159.744 27.7391 160.03 27.9697V27.9725ZM158.35 30.0419C158.947 30.5308 159.333 31.2752 159.333 32.1113C159.333 32.9475 158.947 33.6919 158.35 34.1808C158.064 34.4141 157.644 34.3697 157.411 34.0836C157.178 33.7975 157.222 33.378 157.508 33.1447C157.808 32.9002 158 32.528 158 32.1113C158 31.6947 157.808 31.3225 157.508 31.0752C157.222 30.8419 157.18 30.4225 157.411 30.1363C157.641 29.8502 158.064 29.8086 158.35 30.0391V30.0419Z" fill="white"/>
</g>
</g>
<g filter="url(#filter3_di_801_8616)">
<path d="M182 20C182 15.5817 185.582 12 190 12H259C263.418 12 267 15.5817 267 20V44C267 48.4183 263.418 52 259 52H190C185.582 52 182 48.4183 182 44V20Z" fill="#8581FF" fill-opacity="0.16" shape-rendering="crispEdges"/>
<g filter="url(#filter4_d_801_8616)">
<path d="M198.774 37.674H197.432V36.332H196.772V29.6H194.748V28.258H195.43V27.598H196.09V26.916H196.772V26.256H198.774V26.916H199.456V27.598H200.138V36.332H199.456V37.014H198.774V37.674ZM208.354 37.674H203.646V37.014H202.986V36.332H202.304V27.598H202.986V26.916H203.646V26.256H208.354V26.916H209.036V27.598H209.696V36.332H209.036V37.014H208.354V37.674ZM206.33 34.99V34.308H207.012V29.6H206.33V28.94H205.67V29.6H204.988V34.308H205.67V34.99H206.33ZM217.909 37.674H213.201V37.014H212.541V36.332H211.859V27.598H212.541V26.916H213.201V26.256H217.909V26.916H218.591V27.598H219.251V36.332H218.591V37.014H217.909V37.674ZM215.885 34.99V34.308H216.567V29.6H215.885V28.94H215.225V29.6H214.543V34.308H215.225V34.99H215.885ZM223.438 39.016H222.096V37.014H221.414V35.672H222.096V34.99H223.438V35.672H224.098V37.014H223.438V39.016ZM233.655 37.674H226.945V37.014H226.263V33.648H226.945V32.966H227.605V32.306H228.287V31.624H228.947V30.964H229.629V30.282H230.289V29.6H230.971V28.258H229.629V28.94H228.947V29.6H226.263V27.598H226.945V26.916H227.605V26.256H232.995V26.916H233.655V27.598H234.337V29.6H233.655V30.964H232.995V31.624H232.313V32.306H231.653V32.966H230.971V33.648H230.289V34.308H232.995V34.99H233.655V35.672H234.337V37.014H233.655V37.674ZM242.534 37.674H237.826V37.014H237.166V36.332H236.484V27.598H237.166V26.916H237.826V26.256H242.534V26.916H243.216V27.598H243.876V36.332H243.216V37.014H242.534V37.674ZM240.51 34.99V34.308H241.192V29.6H240.51V28.94H239.85V29.6H239.168V34.308H239.85V34.99H240.51ZM252.088 37.674H247.38V37.014H246.72V36.332H246.038V27.598H246.72V26.916H247.38V26.256H252.088V26.916H252.77V27.598H253.43V36.332H252.77V37.014H252.088V37.674ZM250.064 34.99V34.308H250.746V29.6H250.064V28.94H249.404V29.6H248.722V34.308H249.404V34.99H250.064Z" fill="white"/>
</g>
</g>
<g filter="url(#filter5_di_801_8616)">
<path d="M275 20C275 15.5817 278.582 12 283 12H307C311.418 12 315 15.5817 315 20V44C315 48.4183 311.418 52 307 52H283C278.582 52 275 48.4183 275 44V20Z" fill="#8581FF" fill-opacity="0.16" shape-rendering="crispEdges"/>
<g filter="url(#filter6_d_801_8616)">
<path d="M294.087 24.6621H295.913V26.7632H294.087V24.6621Z" fill="white"/>
<path d="M291.432 37.5414H288.028C287.804 37.5414 287.804 37.3158 287.804 37.3158V28.7831C287.804 28.7831 287.804 28.5596 288.028 28.5596H294.087L294.087 26.7632H291.859C291.859 26.7632 291.409 26.7632 290.958 26.9867L286.675 28.7831C286.224 29.0066 286 29.4578 286 29.9048V37.0902C286 37.3158 286 37.5393 286.224 37.7649L287.577 39.1122C287.801 39.3378 287.971 39.3378 288.252 39.3378H291.433C291.433 38.7918 291.433 38.1467 291.434 37.5539H298.486V39.3378H301.748C302.029 39.3378 302.199 39.3378 302.423 39.1122L303.776 37.7649C304 37.5414 304 37.3158 304 37.0902V29.9048C304 29.4557 303.776 29.0066 303.325 28.7831L299.042 26.9867C298.591 26.7632 298.141 26.7632 298.141 26.7632H295.913L295.913 28.5596H301.974C302.199 28.5596 302.199 28.7831 302.199 28.7831V37.3158C302.199 37.3158 302.199 37.5414 301.974 37.5414H298.493V35.7702H291.434C291.434 35.9421 291.433 37.3912 291.432 37.5414Z" fill="white"/>
<path d="M291.432 33.0133H298.493V31.2297H291.434C291.434 31.4119 291.432 33.0301 291.432 33.0133Z" fill="white"/>
</g>
</g>
<g filter="url(#filter7_di_801_8616)">
<path d="M323 20C323 15.5817 326.582 12 331 12H355C359.418 12 363 15.5817 363 20V44C363 48.4183 359.418 52 355 52H331C326.582 52 323 48.4183 323 44V20Z" fill="#8581FF" fill-opacity="0.16" shape-rendering="crispEdges"/>
<g filter="url(#filter8_d_801_8616)">
<path d="M350.78 32.5305C351.073 32.2368 351.073 31.7618 350.78 31.4712L346.78 27.4685C346.486 27.1748 346.011 27.1748 345.721 27.4685C345.43 27.7622 345.427 28.2372 345.721 28.5278L348.439 31.2463L340.749 31.2494C340.334 31.2494 340 31.5837 340 31.9993C340 32.4149 340.334 32.7492 340.749 32.7492H348.439L345.721 35.4677C345.427 35.7614 345.427 36.2364 345.721 36.527C346.015 36.8176 346.49 36.8207 346.78 36.527L350.78 32.5305ZM340.249 26.4999C340.665 26.4999 340.999 26.1655 340.999 25.7499C340.999 25.3343 340.665 25 340.249 25H337.75C336.231 25 335 26.2311 335 27.7497V36.2489C335 37.7675 336.231 38.9986 337.75 38.9986H340.249C340.665 38.9986 340.999 38.6643 340.999 38.2487C340.999 37.8331 340.665 37.4988 340.249 37.4988H337.75C337.059 37.4988 336.5 36.9395 336.5 36.2489V27.7497C336.5 27.0592 337.059 26.4999 337.75 26.4999H340.249Z" fill="white"/>
</g>
</g>
<defs>
<filter id="filter0_d_801_8616" x="17.833" y="17" width="22.833" height="33.25" filterUnits="userSpaceOnUse" color-interpolation-filters="sRGB">
<feFlood flood-opacity="0" result="BackgroundImageFix"/>
<feColorMatrix in="SourceAlpha" type="matrix" values="0 0 0 0 0 0 0 0 0 0 0 0 0 0 0 0 0 0 127 0" result="hardAlpha"/>
<feOffset dx="2" dy="2"/>
<feComposite in2="hardAlpha" operator="out"/>
<feColorMatrix type="matrix" values="0 0 0 0 0 0 0 0 0 0 0 0 0 0 0 0 0 0 0.25 0"/>
<feBlend mode="normal" in2="BackgroundImageFix" result="effect1_dropShadow_801_8616"/>
<feBlend mode="normal" in="SourceGraphic" in2="effect1_dropShadow_801_8616" result="shape"/>
</filter>
<filter id="filter1_di_801_8616" x="134" y="12" width="41" height="41" filterUnits="userSpaceOnUse" color-interpolation-filters="sRGB">
<feFlood flood-opacity="0" result="BackgroundImageFix"/>
<feColorMatrix in="SourceAlpha" type="matrix" values="0 0 0 0 0 0 0 0 0 0 0 0 0 0 0 0 0 0 127 0" result="hardAlpha"/>
<feOffset dx="1" dy="1"/>
<feComposite in2="hardAlpha" operator="out"/>
<feColorMatrix type="matrix" values="0 0 0 0 0 0 0 0 0 0 0 0 0 0 0 0 0 0 0.12 0"/>
<feBlend mode="normal" in2="BackgroundImageFix" result="effect1_dropShadow_801_8616"/>
<feBlend mode="normal" in="SourceGraphic" in2="effect1_dropShadow_801_8616" result="shape"/>
<feColorMatrix in="SourceAlpha" type="matrix" values="0 0 0 0 0 0 0 0 0 0 0 0 0 0 0 0 0 0 127 0" result="hardAlpha"/>
<feOffset dx="1" dy="1"/>
<feComposite in2="hardAlpha" operator="arithmetic" k2="-1" k3="1"/>
<feColorMatrix type="matrix" values="0 0 0 0 1 0 0 0 0 1 0 0 0 0 1 0 0 0 0.12 0"/>
<feBlend mode="normal" in2="shape" result="effect2_innerShadow_801_8616"/>
</filter>
<filter id="filter2_d_801_8616" x="146.889" y="25.8896" width="17.1113" height="14.4443" filterUnits="userSpaceOnUse" color-interpolation-filters="sRGB">
<feFlood flood-opacity="0" result="BackgroundImageFix"/>
<feColorMatrix in="SourceAlpha" type="matrix" values="0 0 0 0 0 0 0 0 0 0 0 0 0 0 0 0 0 0 127 0" result="hardAlpha"/>
<feOffset dx="2" dy="2"/>
<feComposite in2="hardAlpha" operator="out"/>
<feColorMatrix type="matrix" values="0 0 0 0 0 0 0 0 0 0 0 0 0 0 0 0 0 0 0.95 0"/>
<feBlend mode="normal" in2="BackgroundImageFix" result="effect1_dropShadow_801_8616"/>
<feBlend mode="normal" in="SourceGraphic" in2="effect1_dropShadow_801_8616" result="shape"/>
</filter>
<filter id="filter3_di_801_8616" x="182" y="12" width="86" height="41" filterUnits="userSpaceOnUse" color-interpolation-filters="sRGB">
<feFlood flood-opacity="0" result="BackgroundImageFix"/>
<feColorMatrix in="SourceAlpha" type="matrix" values="0 0 0 0 0 0 0 0 0 0 0 0 0 0 0 0 0 0 127 0" result="hardAlpha"/>
<feOffset dx="1" dy="1"/>
<feComposite in2="hardAlpha" operator="out"/>
<feColorMatrix type="matrix" values="0 0 0 0 0 0 0 0 0 0 0 0 0 0 0 0 0 0 0.12 0"/>
<feBlend mode="normal" in2="BackgroundImageFix" result="effect1_dropShadow_801_8616"/>
<feBlend mode="normal" in="SourceGraphic" in2="effect1_dropShadow_801_8616" result="shape"/>
<feColorMatrix in="SourceAlpha" type="matrix" values="0 0 0 0 0 0 0 0 0 0 0 0 0 0 0 0 0 0 127 0" result="hardAlpha"/>
<feOffset dx="1" dy="1"/>
<feComposite in2="hardAlpha" operator="arithmetic" k2="-1" k3="1"/>
<feColorMatrix type="matrix" values="0 0 0 0 1 0 0 0 0 1 0 0 0 0 1 0 0 0 0.12 0"/>
<feBlend mode="normal" in2="shape" result="effect2_innerShadow_801_8616"/>
</filter>
<filter id="filter4_d_801_8616" x="194.748" y="26.2559" width="60.6816" height="14.7598" filterUnits="userSpaceOnUse" color-interpolation-filters="sRGB">
<feFlood flood-opacity="0" result="BackgroundImageFix"/>
<feColorMatrix in="SourceAlpha" type="matrix" values="0 0 0 0 0 0 0 0 0 0 0 0 0 0 0 0 0 0 127 0" result="hardAlpha"/>
<feOffset dx="2" dy="2"/>
<feComposite in2="hardAlpha" operator="out"/>
<feColorMatrix type="matrix" values="0 0 0 0 0 0 0 0 0 0 0 0 0 0 0 0 0 0 1 0"/>
<feBlend mode="normal" in2="BackgroundImageFix" result="effect1_dropShadow_801_8616"/>
<feBlend mode="normal" in="SourceGraphic" in2="effect1_dropShadow_801_8616" result="shape"/>
</filter>
<filter id="filter5_di_801_8616" x="275" y="12" width="41" height="41" filterUnits="userSpaceOnUse" color-interpolation-filters="sRGB">
<feFlood flood-opacity="0" result="BackgroundImageFix"/>
<feColorMatrix in="SourceAlpha" type="matrix" values="0 0 0 0 0 0 0 0 0 0 0 0 0 0 0 0 0 0 127 0" result="hardAlpha"/>
<feOffset dx="1" dy="1"/>
<feComposite in2="hardAlpha" operator="out"/>
<feColorMatrix type="matrix" values="0 0 0 0 0 0 0 0 0 0 0 0 0 0 0 0 0 0 0.12 0"/>
<feBlend mode="normal" in2="BackgroundImageFix" result="effect1_dropShadow_801_8616"/>
<feBlend mode="normal" in="SourceGraphic" in2="effect1_dropShadow_801_8616" result="shape"/>
<feColorMatrix in="SourceAlpha" type="matrix" values="0 0 0 0 0 0 0 0 0 0 0 0 0 0 0 0 0 0 127 0" result="hardAlpha"/>
<feOffset dx="1" dy="1"/>
<feComposite in2="hardAlpha" operator="arithmetic" k2="-1" k3="1"/>
<feColorMatrix type="matrix" values="0 0 0 0 1 0 0 0 0 1 0 0 0 0 1 0 0 0 0.12 0"/>
<feBlend mode="normal" in2="shape" result="effect2_innerShadow_801_8616"/>
</filter>
<filter id="filter6_d_801_8616" x="286" y="24.6621" width="20" height="16.6758" filterUnits="userSpaceOnUse" color-interpolation-filters="sRGB">
<feFlood flood-opacity="0" result="BackgroundImageFix"/>
<feColorMatrix in="SourceAlpha" type="matrix" values="0 0 0 0 0 0 0 0 0 0 0 0 0 0 0 0 0 0 127 0" result="hardAlpha"/>
<feOffset dx="2" dy="2"/>
<feComposite in2="hardAlpha" operator="out"/>
<feColorMatrix type="matrix" values="0 0 0 0 0 0 0 0 0 0 0 0 0 0 0 0 0 0 0.95 0"/>
<feBlend mode="normal" in2="BackgroundImageFix" result="effect1_dropShadow_801_8616"/>
<feBlend mode="normal" in="SourceGraphic" in2="effect1_dropShadow_801_8616" result="shape"/>
</filter>
<filter id="filter7_di_801_8616" x="323" y="12" width="41" height="41" filterUnits="userSpaceOnUse" color-interpolation-filters="sRGB">
<feFlood flood-opacity="0" result="BackgroundImageFix"/>
<feColorMatrix in="SourceAlpha" type="matrix" values="0 0 0 0 0 0 0 0 0 0 0 0 0 0 0 0 0 0 127 0" result="hardAlpha"/>
<feOffset dx="1" dy="1"/>
<feComposite in2="hardAlpha" operator="out"/>
<feColorMatrix type="matrix" values="0 0 0 0 0 0 0 0 0 0 0 0 0 0 0 0 0 0 0.12 0"/>
<feBlend mode="normal" in2="BackgroundImageFix" result="effect1_dropShadow_801_8616"/>
<feBlend mode="normal" in="SourceGraphic" in2="effect1_dropShadow_801_8616" result="shape"/>
<feColorMatrix in="SourceAlpha" type="matrix" values="0 0 0 0 0 0 0 0 0 0 0 0 0 0 0 0 0 0 127 0" result="hardAlpha"/>
<feOffset dx="1" dy="1"/>
<feComposite in2="hardAlpha" operator="arithmetic" k2="-1" k3="1"/>
<feColorMatrix type="matrix" values="0 0 0 0 1 0 0 0 0 1 0 0 0 0 1 0 0 0 0.12 0"/>
<feBlend mode="normal" in2="shape" result="effect2_innerShadow_801_8616"/>
</filter>
<filter id="filter8_d_801_8616" x="335" y="25" width="18" height="15.999" filterUnits="userSpaceOnUse" color-interpolation-filters="sRGB">
<feFlood flood-opacity="0" result="BackgroundImageFix"/>
<feColorMatrix in="SourceAlpha" type="matrix" values="0 0 0 0 0 0 0 0 0 0 0 0 0 0 0 0 0 0 127 0" result="hardAlpha"/>
<feOffset dx="2" dy="2"/>
<feComposite in2="hardAlpha" operator="out"/>
<feColorMatrix type="matrix" values="0 0 0 0 0 0 0 0 0 0 0 0 0 0 0 0 0 0 0.95 0"/>
<feBlend mode="normal" in2="BackgroundImageFix" result="effect1_dropShadow_801_8616"/>
<feBlend mode="normal" in="SourceGraphic" in2="effect1_dropShadow_801_8616" result="shape"/>
</filter>
<linearGradient id="paint0_linear_801_8616" x1="187.5" y1="64" x2="187.5" y2="0" gradientUnits="userSpaceOnUse">
<stop stop-opacity="0.24"/>
<stop offset="1" stop-opacity="0.16"/>
</linearGradient>
</defs>
</svg>

